#!OML:ASF F:\VICON\USERDATA\INSTALL\rory3\rory3.ASF
:FULLY-SPECIFIED
:DEGREES
1504
root -4.3811 18.3827 7.1242 4.68046 -49.2971 -1.24436
lowerback 11.5308 -2.84683 -6.24962
upperback 5.65414 -4.70631 -6.29486
thorax -0.560642 -2.46601 -2.50629
lowerneck -11.6096 8.04839 -3.61607
upperneck 21.3565 12.6811 -4.75379
head 8.69456 5.04096 0.347423
rclavicle -1.35174e-014 3.18055e-015
rhumerus -7.65476 39.9792 -84.567
rradius 119.218
rwrist -12.0247
rhand -28.2944 13.3621
rfingers 7.12502
rthumb -1.67029 343.389
lclavicle -1.35174e-014 3.18055e-015
lhumerus 14.0002 -3.61498 98.036
lradius 15.2962
lwrist -19.7866
lhand -32.8617 7.40721
lfingers 7.12502
lthumb -6.08074 37.2999
rfemur -31.9185 20.6575 3.38732
rtibia 35.9926
rfoot -7.89587 -6.04521
rtoes -9.61693
lfemur -19.6312 -0.355553 -18.3448
ltibia 36.5706
lfoot -15.712 1.63294
ltoes -6.87723
1505
root -4.44969 18.3826 7.10488 5.33163 -48.473 -1.68434
lowerback 11.668 -2.93418 -6.02603
upperback 5.58842 -4.80354 -6.11234
thorax -0.70796 -2.50473 -2.41575
lowerneck -11.7102 7.99369 -4.00633
upperneck 21.4903 12.6649 -4.59077
head 8.72278 5.01005 0.465363
rclavicle -1.43125e-014 -9.54166e-015
rhumerus -7.61311 39.5358 -84.2188
rradius 119.024
rwrist -12.419
rhand -28.2302 13.5418
rfingers 7.12502
rthumb -1.60824 343.568
lclavicle -1.43125e-014 -9.54166e-015
lhumerus 14.0972 -2.79898 98.5651
lradius 15.0294
lwrist -20.7554
lhand -31.6352 7.61594
lfingers 7.12502
lthumb -4.8965 37.5394
rfemur -32.0033 21.4381 3.05456
rtibia 35.0218
rfoot -7.78327 -5.76725
rtoes -9.53442
lfemur -19.8955 -0.738779 -17.7532
ltibia 36.434
lfoot -15.7067 1.03115
ltoes -4.32757
1506
root -4.51874 18.403 7.08319 5.62645 -47.7211 -1.79139
lowerback 12.0095 -2.91749 -6.26782
upperback 5.52496 -4.83043 -5.85341
thorax -0.916315 -2.51511 -1.98617
lowerneck -11.8008 7.90294 -4.43229
upperneck 21.5676 12.641 -4.60436
head 8.74228 4.95668 0.529053
rclavicle 5.32743e-014 5.40694e-014
rhumerus -7.47932 39.0789 -83.5936
rradius 118.882
rwrist -12.9735
rhand -28.246 13.6611
rfingers 7.12502
rthumb -1.62353 343.688
lclavicle 5.32743e-014 5.40694e-014
lhumerus 14.1753 -2.50666 99.0251
lradius 14.8217
lwrist -21.1988
lhand -30.451 7.49131
lfingers 7.12502
lthumb -3.75298 37.438
rfemur -32.0469 22.3057 2.51845
rtibia 34.2012
rfoot -7.82726 -5.67865
rtoes -9.24218
lfemur -20.1256 -0.927001 -17.4558
ltibia 36.2699
lfoot -15.6593 0.732463
ltoes -2.68669
1507
root -4.58879 18.4176 7.05446 5.81592 -46.9496 -1.83843
lowerback 12.5548 -2.86887 -6.69058
upperback 5.42636 -4.8594 -5.55957
thorax -1.25195 -2.52449 -1.40748
lowerneck -11.9333 7.82235 -4.8045
upperneck 21.7493 12.6368 -4.63179
head 8.81021 4.90704 0.586486
rclavicle -6.2816e-014 3.81667e-014
rhumerus -7.3928 38.6157 -82.9936
rradius 118.741
rwrist -13.5726
rhand -28.0739 13.6776
rfingers 7.12502
rthumb -1.45732 343.703
lclavicle -6.2816e-014 3.81667e-014
lhumerus 14.1939 -2.18202 99.5082
lradius 14.6173
lwrist -21.5436
lhand -30.6855 7.28504
lfingers 7.12502
lthumb -3.97941 37.2276
rfemur -32.0389 23.1233 2.00318
rtibia 33.4549
rfoot -7.98244 -5.62142
rtoes -8.96032
lfemur -20.3129 -1.11144 -17.1553
ltibia 36.1838
lfoot -15.5666 0.406683
ltoes -2.68013
1508
root -4.65979 18.4223 7.02101 5.99569 -46.1411 -1.83832
lowerback 11.5932 -3.29321 -4.83209
upperback 6.20353 -5.14561 -7.13872
thorax -0.223054 -2.66429 -4.14527
lowerneck -12.1673 7.92071 -3.48155
upperneck 21.2662 12.3469 -3.93921
head 8.70688 4.98476 0.58049
rclavicle -5.56597e-015 -7.95139e-014
rhumerus -6.41736 37.1595 -84.7741
rradius 118.241
rwrist -13.8705
rhand -27.6528 13.8863
rfingers 7.12502
rthumb -1.05054 343.909
lclavicle -5.56597e-015 -7.95139e-014
lhumerus 14.9288 -3.91444 96.856
lradius 14.5433
lwrist -20.6985
lhand -31.999 7.85623
lfingers 7.12502
lthumb -5.24772 37.7713
rfemur -32.0816 23.782 1.52735
rtibia 32.8359
rfoot -8.18964 -5.5358
rtoes -9.12299
lfemur -20.513 -1.4156 -16.8366
ltibia 36.1064
lfoot -15.407 0.0113027
ltoes -2.77724
1509
root -4.73023 18.4256 6.99169 6.22406 -45.2635 -1.84845
lowerback 12.0494 -3.26327 -5.1822
upperback 6.07025 -5.17179 -6.77795
thorax -0.546652 -2.67692 -3.53275
lowerneck -12.2169 7.80039 -3.90629
upperneck 21.5164 12.3013 -3.99632
head 8.78185 4.90766 0.629794
rclavicle 7.95139e-016 4.77083e-014
rhumerus -6.42018 36.6202 -84.0055
rradius 118.033
rwrist -14.5778
rhand -27.1542 14.1185
rfingers 7.12502
rthumb -0.56902 344.14
lclavicle 7.95139e-016 4.77083e-014
lhumerus 14.7537 -3.12362 97.7317
lradius 14.3627
lwrist -21.456
lhand -32.7834 8.4425
lfingers 7.12502
lthumb -6.00514 38.3374
rfemur -32.1357 24.2217 1.13096
rtibia 32.3733
rfoot -8.23925 -5.36643
rtoes -9.67204
lfemur -20.7513 -1.85164 -16.5087
ltibia 36.0052
lfoot -15.2631 -0.326735
ltoes -2.61946
1510
root -4.80396 18.4284 6.96404 6.54094 -44.413 -1.93598
lowerback 12.3938 -3.27181 -5.50599
upperback 5.94199 -5.23592 -6.3941
thorax -0.803728 -2.7071 -2.91519
lowerneck -12.1297 7.79708 -4.32992
upperneck 21.5292 12.4082 -4.14141
head 8.75758 4.90855 0.654636
rclavicle 7.4743e-014 6.04305e-014
rhumerus -6.34606 36.2711 -83.2091
rradius 117.889
rwrist -15.4351
rhand -26.782 13.7576
rfingers 7.12502
rthumb -0.209557 343.778
lclavicle 7.4743e-014 6.04305e-014
lhumerus 14.6166 -1.83304 98.6601
lradius 14.1944
lwrist -22.3638
lhand -32.7671 8.50025
lfingers 7.12502
lthumb -5.98935 38.3956
rfemur -32.2418 24.6676 0.815397
rtibia 32.0515
rfoot -8.16858 -5.08546
rtoes -10.477
lfemur -21.0047 -2.16212 -16.1142
ltibia 35.8843
lfoot -15.1006 -0.706219
ltoes -2.62932
1511
root -4.88223 18.4271 6.93348 7.07298 -43.561 -2.28134
lowerback 12.2764 -3.41702 -4.83345
upperback 6.01847 -5.34413 -6.61348
thorax -0.745694 -2.74944 -3.51322
lowerneck -11.7618 7.87402 -4.21114
upperneck 21.1597 12.4121 -4.04083
head 8.56209 4.96281 0.643522
rclavicle -3.49861e-014 -1.90833e-014
rhumerus -6.16622 35.4996 -83.3798
rradius 117.602
rwrist -16.1711
rhand -26.2438 13.4131
rfingers 7.12502
rthumb 0.310311 343.434
lclavicle -3.49861e-014 -1.90833e-014
lhumerus 14.52 -1.8001 98.2875
lradius 14.1816
lwrist -22.2365
lhand -32.7605 8.84622
lfingers 7.12502
lthumb -5.98297 38.7417
rfemur -32.3939 25.0581 0.783144
rtibia 31.8348
rfoot -8.14979 -4.78266
rtoes -10.9765
lfemur -21.2769 -2.46639 -15.4535
ltibia 35.7424
lfoot -14.869 -1.23491
ltoes -1.62927
1512
root -4.96235 18.418 6.89303 7.36737 -42.5703 -2.38461
lowerback 12.4834 -3.45127 -4.75061
upperback 6.03753 -5.38968 -6.55642
thorax -0.841058 -2.76763 -3.48043
lowerneck -11.6784 7.79673 -4.28669
upperneck 21.2304 12.3173 -4.02738
head 8.56568 4.91238 0.647338
rclavicle -1.11319e-014 1.27222e-014
rhumerus -5.99644 34.7202 -83.0571
rradius 117.359
rwrist -16.9849
rhand -25.7305 12.9465
rfingers 7.12502
rthumb 0.806023 342.968
lclavicle -1.11319e-014 1.27222e-014
lhumerus 14.3356 -2.27543 98.1494
lradius 14.2532
lwrist -21.4854
lhand -32.6224 9.2155
lfingers 7.12502
lthumb -5.84969 39.1147
rfemur -32.4913 25.3114 0.659589
rtibia 31.7503
rfoot -8.19426 -4.42364
rtoes -9.93324
lfemur -21.473 -3.09168 -14.8925
ltibia 35.4629
lfoot -14.5641 -1.74937
ltoes -0.842982
1513
root -5.0511 18.4152 6.85566 7.20286 -41.6863 -1.89136
lowerback 12.4267 -3.49974 -4.95529
upperback 6.22653 -5.46633 -6.81215
thorax -0.618316 -2.81211 -3.63997
lowerneck -11.7807 7.76993 -4.25002
upperneck 21.2964 12.2282 -3.74796
head 8.5872 4.89971 0.72939
rclavicle 2.94201e-014 3.18055e-014
rhumerus -5.64008 33.9383 -82.9917
rradius 117.082
rwrist -17.7622
rhand -24.903 12.0769
rfingers 7.12502
rthumb 1.60521 342.103
lclavicle 2.94201e-014 3.18055e-014
lhumerus 14.346 -2.30461 97.8589
lradius 14.2407
lwrist -21.097
lhand -32.3042 9.56143
lfingers 7.12502
lthumb -5.5424 39.4689
rfemur -32.531 25.4972 0.147364
rtibia 31.7444
rfoot -8.02591 -3.67644
rtoes -10.5498
lfemur -21.554 -3.69083 -14.8746
ltibia 35.0896
lfoot -14.3473 -1.91255
ltoes -2.05642
